<svg xmlns="http://www.w3.org/2000/svg" viewBox="0 0 720 460" fill="none">
  <defs>
    <linearGradient id="bg" x1="0" y1="0" x2="720" y2="460" gradientUnits="userSpaceOnUse">
      <stop offset="0" stop-color="#1e1e2e"/>
      <stop offset="1" stop-color="#2d2d3f"/>
    </linearGradient>
    <linearGradient id="accent" x1="0" y1="0" x2="200" y2="0" gradientUnits="userSpaceOnUse">
      <stop offset="0" stop-color="#d94a38"/>
      <stop offset="1" stop-color="#e8765a"/>
    </linearGradient>
  </defs>
  <!-- Window frame -->
  <rect width="720" height="460" rx="12" fill="url(#bg)"/>
  <!-- Title bar -->
  <rect width="720" height="36" rx="12" fill="#16161e"/>
  <rect y="12" width="720" height="24" fill="#16161e"/>
  <circle cx="20" cy="18" r="6" fill="#ff5f57"/>
  <circle cx="40" cy="18" r="6" fill="#febc2e"/>
  <circle cx="60" cy="18" r="6" fill="#28c840"/>
  <text x="360" y="22" text-anchor="middle" fill="#888" font-family="system-ui" font-size="12">Cursor  my-project</text>
  <!-- Sidebar -->
  <rect x="0" y="36" width="180" height="424" fill="#16161e"/>
  <rect x="0" y="448" width="180" height="12" rx="0" fill="#16161e"/>
  <!-- Sidebar items -->
  <rect x="16" y="56" width="100" height="8" rx="4" fill="#555"/>
  <rect x="16" y="76" width="148" height="8" rx="4" fill="#444"/>
  <rect x="16" y="96" width="120" height="8" rx="4" fill="#444"/>
  <rect x="16" y="116" width="140" height="8" rx="4" fill="#444"/>
  <rect x="16" y="136" width="90" height="8" rx="4" fill="#444"/>
  <rect x="16" y="164" width="80" height="8" rx="4" fill="#555"/>
  <rect x="24" y="184" width="130" height="8" rx="4" fill="#444"/>
  <rect x="24" y="204" width="110" height="8" rx="4" fill="#444"/>
  <!-- Editor area -->
  <rect x="180" y="36" width="340" height="424" fill="#1e1e2e"/>
  <!-- Code lines -->
  <rect x="200" y="56" width="60" height="8" rx="4" fill="#c678dd" opacity="0.7"/>
  <rect x="268" y="56" width="120" height="8" rx="4" fill="#98c379" opacity="0.7"/>
  <rect x="200" y="76" width="40" height="8" rx="4" fill="#61afef" opacity="0.7"/>
  <rect x="248" y="76" width="180" height="8" rx="4" fill="#abb2bf" opacity="0.5"/>
  <rect x="200" y="96" width="80" height="8" rx="4" fill="#e06c75" opacity="0.7"/>
  <rect x="288" y="96" width="140" height="8" rx="4" fill="#d19a66" opacity="0.7"/>
  <rect x="200" y="116" width="200" height="8" rx="4" fill="#abb2bf" opacity="0.4"/>
  <rect x="200" y="136" width="160" height="8" rx="4" fill="#98c379" opacity="0.5"/>
  <rect x="200" y="156" width="100" height="8" rx="4" fill="#61afef" opacity="0.6"/>
  <rect x="200" y="176" width="240" height="8" rx="4" fill="#abb2bf" opacity="0.4"/>
  <rect x="200" y="196" width="180" height="8" rx="4" fill="#c678dd" opacity="0.5"/>
  <!-- Chat panel -->
  <rect x="520" y="36" width="200" height="424" fill="#1a1a2a"/>
  <!-- Chat header -->
  <rect x="520" y="36" width="200" height="32" fill="#16161e"/>
  <text x="620" y="56" text-anchor="middle" fill="#ccc" font-family="system-ui" font-size="11" font-weight="600">LingXi Chat</text>
  <!-- Chat bubbles -->
  <rect x="536" y="82" width="160" height="36" rx="8" fill="#2a2a3e"/>
  <rect x="544" y="92" width="100" height="8" rx="4" fill="#aaa"/>
  <rect x="544" y="104" width="70" height="8" rx="4" fill="#aaa"/>
  <!-- AI response -->
  <rect x="536" y="130" width="168" height="80" rx="8" fill="url(#accent)" opacity="0.15"/>
  <rect x="536" y="130" width="168" height="80" rx="8" stroke="url(#accent)" stroke-width="1" opacity="0.4"/>
  <rect x="548" y="142" width="40" height="8" rx="4" fill="#d94a38" opacity="0.8"/>
  <rect x="548" y="156" width="140" height="8" rx="4" fill="#ccc" opacity="0.6"/>
  <rect x="548" y="170" width="120" height="8" rx="4" fill="#ccc" opacity="0.6"/>
  <rect x="548" y="184" width="100" height="8" rx="4" fill="#ccc" opacity="0.6"/>
  <!-- Memory indicator -->
  <rect x="536" y="222" width="168" height="48" rx="8" fill="#1e3a2e" opacity="0.8"/>
  <rect x="548" y="234" width="12" height="12" rx="6" fill="#28c840" opacity="0.6"/>
  <rect x="566" y="236" width="60" height="8" rx="4" fill="#28c840" opacity="0.5"/>
  <rect x="548" y="252" width="130" height="8" rx="4" fill="#aaa" opacity="0.5"/>
  <!-- Chat input -->
  <rect x="536" y="410" width="168" height="32" rx="8" fill="#2a2a3e"/>
  <rect x="548" y="422" width="80" height="8" rx="4" fill="#666"/>
  <!-- Placeholder label -->
  <rect x="232" y="290" width="256" height="48" rx="24" fill="#333" opacity="0.6"/>
  <text x="360" y="320" text-anchor="middle" fill="#999" font-family="system-ui" font-size="14">*ţ`M · ˙b:ž*ţ</text>
</svg>
