<svg xmlns="http://www.w3.org/2000/svg" viewBox="0 0 760 340" fill="none">
  <defs>
    <linearGradient id="mem-glow" x1="0" y1="0" x2="0" y2="1">
      <stop offset="0" stop-color="#d94a38" stop-opacity="0.15"/>
      <stop offset="1" stop-color="#d94a38" stop-opacity="0.02"/>
    </linearGradient>
  </defs>
  <!-- Left: Conversation -->
  <rect x="20" y="20" width="200" height="300" rx="12" fill="#1e1e2e" stroke="#333" stroke-width="1"/>
  <text x="120" y="50" text-anchor="middle" fill="#aaa" font-family="system-ui" font-size="13" font-weight="600">ůÝ</text>
  <!-- Chat messages -->
  <rect x="36" y="68" width="120" height="28" rx="8" fill="#2a2a3e"/>
  <rect x="44" y="77" width="80" height="6" rx="3" fill="#888"/>
  <rect x="44" y="87" width="55" height="6" rx="3" fill="#888"/>
  <rect x="84" y="108" width="120" height="40" rx="8" fill="#d94a38" opacity="0.1" stroke="#d94a38" stroke-width="0.5"/>
  <rect x="92" y="118" width="90" height="6" rx="3" fill="#d94a38" opacity="0.5"/>
  <rect x="92" y="128" width="70" height="6" rx="3" fill="#d94a38" opacity="0.4"/>
  <rect x="92" y="138" width="50" height="6" rx="3" fill="#d94a38" opacity="0.3"/>
  <rect x="36" y="160" width="140" height="28" rx="8" fill="#2a2a3e"/>
  <rect x="44" y="170" width="100" height="6" rx="3" fill="#888"/>
  <rect x="44" y="180" width="75" height="6" rx="3" fill="#888"/>
  <rect x="64" y="200" width="140" height="36" rx="8" fill="#d94a38" opacity="0.1" stroke="#d94a38" stroke-width="0.5"/>
  <rect x="72" y="210" width="110" height="6" rx="3" fill="#d94a38" opacity="0.5"/>
  <rect x="72" y="220" width="85" height="6" rx="3" fill="#d94a38" opacity="0.4"/>
  <!-- Arrow: Conversation ’ Memory Bank -->
  <path d="M228 170 L268 170" stroke="#d94a38" stroke-width="2" opacity="0.6"/>
  <polygon points="268,165 280,170 268,175" fill="#d94a38" opacity="0.6"/>
  <!-- Label: taste-recognition -->
  <text x="300" y="156" text-anchor="middle" fill="#d94a38" font-family="ui-monospace,monospace" font-size="9" opacity="0.7">taste-recognition</text>
  <!-- Center: Memory Bank -->
  <rect x="280" y="20" width="200" height="300" rx="12" fill="url(#mem-glow)" stroke="#d94a38" stroke-width="1.5" opacity="0.8"/>
  <text x="380" y="50" text-anchor="middle" fill="#d94a38" font-family="system-ui" font-size="13" font-weight="600">>ŕ °Ć“</text>
  <!-- Memory notes -->
  <rect x="296" y="70" width="168" height="44" rx="8" fill="#1e1e2e" stroke="#444" stroke-width="0.5"/>
  <rect x="308" y="80" width="24" height="8" rx="4" fill="#28c840" opacity="0.5"/>
  <rect x="338" y="80" width="90" height="8" rx="4" fill="#aaa" opacity="0.5"/>
  <rect x="308" y="94" width="140" height="6" rx="3" fill="#666"/>
  <rect x="296" y="122" width="168" height="44" rx="8" fill="#1e1e2e" stroke="#444" stroke-width="0.5"/>
  <rect x="308" y="132" width="24" height="8" rx="4" fill="#61afef" opacity="0.5"/>
  <rect x="338" y="132" width="80" height="8" rx="4" fill="#aaa" opacity="0.5"/>
  <rect x="308" y="146" width="130" height="6" rx="3" fill="#666"/>
  <rect x="296" y="174" width="168" height="44" rx="8" fill="#1e1e2e" stroke="#444" stroke-width="0.5"/>
  <rect x="308" y="184" width="24" height="8" rx="4" fill="#e8a838" opacity="0.5"/>
  <rect x="338" y="184" width="100" height="8" rx="4" fill="#aaa" opacity="0.5"/>
  <rect x="308" y="198" width="120" height="6" rx="3" fill="#666"/>
  <!-- Governance label -->
  <rect x="306" y="232" width="148" height="28" rx="8" fill="#1e1e2e" stroke="#555" stroke-width="0.5"/>
  <text x="380" y="250" text-anchor="middle" fill="#888" font-family="system-ui" font-size="10">Äa · TopK » · č§</text>
  <!-- INDEX.md -->
  <rect x="306" y="274" width="148" height="28" rx="8" fill="#1e1e2e" stroke="#555" stroke-width="0.5"/>
  <text x="380" y="292" text-anchor="middle" fill="#888" font-family="ui-monospace,monospace" font-size="10">INDEX.md</text>
  <!-- Arrow: Memory Bank ’ New Conversation -->
  <path d="M488 170 L528 170" stroke="#28c840" stroke-width="2" opacity="0.6"/>
  <polygon points="528,165 540,170 528,175" fill="#28c840" opacity="0.6"/>
  <!-- Label: memory-retrieve -->
  <text x="470" y="156" text-anchor="middle" fill="#28c840" font-family="ui-monospace,monospace" font-size="9" opacity="0.7">memory-retrieve</text>
  <!-- Right: New Conversation (with memory injected) -->
  <rect x="540" y="20" width="200" height="300" rx="12" fill="#1e1e2e" stroke="#333" stroke-width="1"/>
  <text x="640" y="50" text-anchor="middle" fill="#aaa" font-family="system-ui" font-size="13" font-weight="600">°ůÝ</text>
  <!-- Injected memory indicator -->
  <rect x="556" y="68" width="168" height="36" rx="8" fill="#28c840" opacity="0.08" stroke="#28c840" stroke-width="0.5"/>
  <rect x="564" y="74" width="12" height="12" rx="6" fill="#28c840" opacity="0.4"/>
  <rect x="582" y="76" width="70" height="8" rx="4" fill="#28c840" opacity="0.4"/>
  <rect x="564" y="92" width="140" height="6" rx="3" fill="#28c840" opacity="0.2"/>
  <!-- User message -->
  <rect x="556" y="116" width="130" height="28" rx="8" fill="#2a2a3e"/>
  <rect x="564" y="126" width="90" height="6" rx="3" fill="#888"/>
  <rect x="564" y="136" width="60" height="6" rx="3" fill="#888"/>
  <!-- AI response (better quality, memory-informed) -->
  <rect x="576" y="156" width="148" height="56" rx="8" fill="#d94a38" opacity="0.08" stroke="#d94a38" stroke-width="0.5"/>
  <rect x="584" y="166" width="120" height="6" rx="3" fill="#d94a38" opacity="0.4"/>
  <rect x="584" y="178" width="100" height="6" rx="3" fill="#d94a38" opacity="0.3"/>
  <rect x="584" y="190" width="80" height="6" rx="3" fill="#d94a38" opacity="0.3"/>
  <rect x="584" y="202" width="60" height="6" rx="3" fill="#d94a38" opacity="0.2"/>
  <!-- Quality badge -->
  <rect x="586" y="224" width="120" height="20" rx="10" fill="#28c840" opacity="0.12" stroke="#28c840" stroke-width="0.5"/>
  <text x="646" y="238" text-anchor="middle" fill="#28c840" font-family="system-ui" font-size="9" opacity="0.7"> 	`„ąŢT</text>
  <!-- Placeholder label -->
  <rect x="240" y="290" width="280" height="28" rx="14" fill="#333" opacity="0.5"/>
  <text x="380" y="308" text-anchor="middle" fill="#999" font-family="system-ui" font-size="11">`Mţ · ˙b:°Ćűß:ţ</text>
</svg>
